<?xml version="1.0" encoding="UTF-8" standalone="no"?>
<!-- Created with Inkscape (http://www.inkscape.org/) -->

<svg
   xmlns:dc="http://purl.org/dc/elements/1.1/"
   xmlns:cc="http://creativecommons.org/ns#"
   xmlns:rdf="http://www.w3.org/1999/02/22-rdf-syntax-ns#"
   xmlns:svg="http://www.w3.org/2000/svg"
   xmlns="http://www.w3.org/2000/svg"
   xmlns:xlink="http://www.w3.org/1999/xlink"
   xmlns:sodipodi="http://sodipodi.sourceforge.net/DTD/sodipodi-0.dtd"
   xmlns:inkscape="http://www.inkscape.org/namespaces/inkscape"
   id="svg2"
   height="297mm"
   width="210mm"
   version="1.1"
   inkscape:version="0.48.2 r9819"
   sodipodi:docname="logo.svg">
  <sodipodi:namedview
     pagecolor="#ffffff"
     bordercolor="#666666"
     borderopacity="1"
     objecttolerance="10"
     gridtolerance="10"
     guidetolerance="10"
     inkscape:pageopacity="0"
     inkscape:pageshadow="2"
     inkscape:window-width="932"
     inkscape:window-height="794"
     id="namedview70"
     showgrid="false"
     inkscape:zoom="0.44851479"
     inkscape:cx="475.81492"
     inkscape:cy="337.35261"
     inkscape:window-x="41"
     inkscape:window-y="85"
     inkscape:window-maximized="0"
     inkscape:current-layer="svg2" />
  <defs
     id="defs4">
    <filter
       id="filter3969"
       height="2.296"
       width="2.296"
       y="-.648"
       x="-.648">
      <feGaussianBlur
         id="feGaussianBlur3971"
         stdDeviation="6.49124" />
    </filter>
    <filter
       id="filter4009">
      <feGaussianBlur
         id="feGaussianBlur4011"
         stdDeviation="2.925" />
    </filter>
    <filter
       id="filter4063">
      <feGaussianBlur
         id="feGaussianBlur4065"
         stdDeviation="1.1423125" />
    </filter>
    <linearGradient
       id="linearGradient4347"
       y2="700.84"
       gradientUnits="userSpaceOnUse"
       x2="458.72"
       y1="374.84"
       x1="228.22">
      <stop
         id="stop3985"
         stop-color="#fff"
         offset="0" />
      <stop
         id="stop3995"
         stop-color="#fff"
         stop-opacity="0"
         offset=".19813" />
      <stop
         id="stop3991"
         stop-color="#fff"
         stop-opacity="0"
         offset=".57631" />
      <stop
         id="stop3993"
         stop-color="#fff"
         offset="0.90618438" />
      <stop
         id="stop3987"
         stop-color="#fff"
         offset="1" />
    </linearGradient>
    <linearGradient
       id="linearGradient4426"
       y2="657.84"
       gradientUnits="userSpaceOnUse"
       x2="480.94"
       gradientTransform="translate(33.941 -299.81)"
       y1="380.84"
       x1="183.56">
      <stop
         id="stop4333"
         stop-color="#fff"
         stop-opacity=".78022"
         offset="0" />
      <stop
         id="stop4339"
         stop-color="#fff"
         stop-opacity="0"
         offset=".5" />
      <stop
         id="stop4341"
         stop-color="#fff"
         stop-opacity="0"
         offset=".75" />
      <stop
         id="stop4335"
         stop-color="#444343"
         stop-opacity=".71429"
         offset="1" />
    </linearGradient>
    <linearGradient
       id="linearGradient4429"
       y2="589.84"
       gradientUnits="userSpaceOnUse"
       x2="464.66"
       gradientTransform="translate(33.941 -299.81)"
       y1="408.84"
       x1="192.28">
      <stop
         id="stop4033"
         offset="0" />
      <stop
         id="stop4039"
         stop-color="#fff"
         stop-opacity="0"
         offset=".5" />
      <stop
         id="stop4041"
         stop-color="#fff"
         stop-opacity="0"
         offset=".75" />
      <stop
         id="stop4035"
         stop-color="#fff"
         offset="1" />
    </linearGradient>
    <radialGradient
       id="radialGradient4434"
       gradientUnits="userSpaceOnUse"
       cy="511.6"
       cx="309.75"
       gradientTransform="matrix(1.225 0 0 1.225 -37.023 -417.65)"
       r="36.535">
      <stop
         id="stop3607"
         stop-color="#787878"
         offset="0" />
      <stop
         id="stop3609"
         stop-color="#060000"
         offset="1" />
    </radialGradient>
    <radialGradient
       id="radialGradient4437"
       gradientUnits="userSpaceOnUse"
       cy="579.81"
       cx="341.45"
       gradientTransform="matrix(1.6155 -.78861 .91752 1.8795 -694.27 -530.6)"
       r="135.34">
      <stop
         id="stop3615"
         stop-color="#8c8c8c"
         offset="0" />
      <stop
         id="stop3617"
         offset="1" />
    </radialGradient>
    <radialGradient
       inkscape:collect="always"
       xlink:href="#radialGradient4437"
       id="radialGradient3132"
       gradientUnits="userSpaceOnUse"
       gradientTransform="matrix(1.7626251,-1.1286544,1.7049511,2.6624625,-1201.0662,-868.46134)"
       cx="341.45001"
       cy="579.81"
       r="135.34"
       fx="341.45001"
       fy="579.81" />
    <radialGradient
       inkscape:collect="always"
       xlink:href="#radialGradient4434"
       id="radialGradient3134"
       gradientUnits="userSpaceOnUse"
       gradientTransform="matrix(1.225,0,0,1.225,-39.387828,-442.87483)"
       cx="309.75"
       cy="511.6"
       r="36.535" />
    <linearGradient
       inkscape:collect="always"
       xlink:href="#linearGradient4347"
       id="linearGradient3136"
       gradientUnits="userSpaceOnUse"
       x1="424.88565"
       y1="577.65143"
       x2="559.35748"
       y2="740.01953" />
    <linearGradient
       inkscape:collect="always"
       xlink:href="#linearGradient4429"
       id="linearGradient3138"
       gradientUnits="userSpaceOnUse"
       gradientTransform="translate(33.941,-299.81)"
       x1="192.28"
       y1="408.84"
       x2="464.66"
       y2="589.84" />
    <linearGradient
       inkscape:collect="always"
       xlink:href="#linearGradient4426"
       id="linearGradient3140"
       gradientUnits="userSpaceOnUse"
       gradientTransform="translate(33.941,-299.81)"
       x1="183.56"
       y1="380.84"
       x2="480.94"
       y2="657.84" />
  </defs>
  <metadata
     id="metadata7">
    <rdf:RDF>
      <cc:Work
         rdf:about="">
        <dc:format>image/svg+xml</dc:format>
        <dc:type
           rdf:resource="http://purl.org/dc/dcmitype/StillImage" />
        <dc:title></dc:title>
      </cc:Work>
    </rdf:RDF>
  </metadata>
  <g
     id="layer1"
     transform="matrix(1.6789785,0,0,1.8164513,-222.63376,163.13879)"
     inkscape:transform-center-x="-52.93994"
     inkscape:transform-center-y="-40.109731">
    <g
       id="g4442">
      <path
         id="path4352"
         style="color:#000000;stroke:#666666"
         d="m 349.41,40.124 c -100.59,0 -183.91,83.312 -183.91,183.91 0,100.59 83.312,183.91 183.91,183.91 100.59,0 183.91,-83.312 183.91,-183.91 0,-100.59 -83.312,-183.91 -183.91,-183.91 z"
         inkscape:connector-curvature="0" />
      <path
         id="path4140"
         style="color:#000000;fill:#999999;stroke:#666666"
         d="m 349.41,-56.191486 c -99.364,0 -181.69,180.857486 -181.69,280.224486 0,99.364 82.323,181.69 181.69,181.69 99.364,0 181.69,-82.323 181.69,-181.69 0,-99.364 -82.323,-280.224486 -181.69,-280.224486 z"
         inkscape:connector-curvature="0"
         sodipodi:nodetypes="sssss" />
      <path
         id="path4142"
         style="color:#000000"
         d="m 349.41,-32.722486 c -86.344,0 -158.22,170.409486 -158.22,256.754486 0,86.344 71.875,158.22 158.22,158.22 86.344,0 158.22,-71.875 158.22,-158.22 0,-86.344 -71.875,-256.754486 -158.22,-256.754486 z"
         inkscape:connector-curvature="0"
         sodipodi:nodetypes="sssss" />
      <path
         id="path4144"
         style="color:#000000;fill:url(#radialGradient3132)"
         d="m 349.41,-9.3474858 c -73.298,0 -134.84,160.0804858 -134.84,233.3744858 0,73.298 61.546,134.84 134.84,134.84 73.298,0 134.84,-61.546 134.84,-134.84 0,-73.298 -61.546,-233.3744858 -134.84,-233.3744858 z"
         inkscape:connector-curvature="0"
         sodipodi:nodetypes="sssss" />
      <path
         id="path4146"
         style="color:#000000;fill:url(#radialGradient3134)"
         d="m 391.18517,198.80517 c 0,24.379 -19.763,44.141 -44.141,44.141 -24.379,0 -44.141,-19.763 -44.141,-44.141 0,-24.379 18.18645,-72.51893 42.56445,-72.51893 24.379,0 45.71755,48.14093 45.71755,72.51893 z"
         inkscape:connector-curvature="0"
         sodipodi:nodetypes="sssss" />
      <path
         id="path4148"
         style="color:#000000;fill:#ffffff;filter:url(#filter3969)"
         d="m 352.25692,160.38617 c 0,6.6389 -5.3819,12.021 -12.021,12.021 -6.6389,0 -12.021,-5.3819 -12.021,-12.021 0,-6.6389 5.3819,-12.021 12.021,-12.021 6.6389,0 12.021,5.3819 12.021,12.021 z"
         inkscape:connector-curvature="0"
         sodipodi:nodetypes="sssss" />
      <path
         id="path4345"
         style="color:#000000;fill:url(#linearGradient3136);stroke:#999999;stroke-width:0.92439997;filter:url(#filter4009)"
         d="m 315.47,283.28185 c -78.861,0 -144.53,161.69815 -144.53,240.55815 0,78.861 65.67,144.53 144.53,144.53 C 394.33,668.38 460,602.7 460,523.84 460,444.98 394.33,283.28185 315.47,283.28185 z m 0,6.5312 c 75.331,0 138,158.69715 138,234.02815 0,75.331 -62.669,138 -138,138 -75.331,0 -138,-62.669 -138,-138 0,-75.331 62.669,-234.02815 138,-234.02815 z"
         transform="matrix(1.0261,0,0,1.0261,25.708,-313.48)"
         inkscape:connector-curvature="0"
         sodipodi:nodetypes="sscsssssss" />
      <path
         id="path4152"
         style="color:#000000;fill:url(#linearGradient3138);filter:url(#filter4063)"
         d="m 350.41,-37.691486 c -89.064,0 -163.19,172.658486 -163.19,261.724486 0,89.064 74.124,163.19 163.19,163.19 89.064,0 163.19,-74.124 163.19,-163.19 0,-89.064 -74.124,-261.724486 -163.19,-261.724486 z m 0,4.9688 c 86.344,0 158.22,170.409486 158.22,256.754486 0,86.344 -71.875,158.22 -158.22,158.22 -86.344,0 -158.22,-71.875 -158.22,-158.22 0,-86.344 71.875,-256.754486 158.22,-256.754486 z"
         inkscape:connector-curvature="0"
         sodipodi:nodetypes="ssssssssss" />
      <path
         id="path4284"
         style="color:#000000;fill:url(#linearGradient3140)"
         d="m 349.19,-57.191486 c -99.364,0 -181.69,180.857486 -181.69,280.224486 0,99.364 82.323,181.69 181.69,181.69 99.364,0 181.69,-82.323 181.69,-181.69 0,-99.364 -82.323,-280.224486 -181.69,-280.224486 z m 0,4 c 97.183,0 177.72,179.039486 177.72,276.224486 0,97.183 -80.536,177.69 -177.72,177.69 -97.183,0 -177.69,-80.505 -177.69,-177.69 0,-97.183 80.505,-276.224486 177.69,-276.224486 z"
         inkscape:connector-curvature="0"
         sodipodi:nodetypes="ssssssssss" />
      <g
         id="g4385"
         transform="translate(34.982,-299.66)">
        <g
           id="g4355"
           transform="matrix(1.0583,0.62048,-0.62048,1.0583,150.91,-152.88)">
          <g
             id="g4108"
             transform="translate(12.5,-63.5)">
            <g
               id="g4103"
               transform="translate(2.75,0)">
              <path
                 id="path4100"
                 style="color:#000000;fill:#b3b3b3"
                 d="m 267.57865,276.15987 c -3.4416,0 -6.2174,2.7758 -6.2174,6.2174 0,3.4416 2.7724,6.2514 6.2174,6.2514 3.445,0 6.2514,-2.8064 6.2514,-6.2514 0,-3.445 -2.8098,-6.2174 -6.2514,-6.2174 z"
                 inkscape:connector-curvature="0" />
              <path
                 id="path4088"
                 style="color:#000000;fill:#4d4d4d"
                 d="m 273.34865,282.38987 c 0,3.1843 -2.5814,5.7657 -5.7657,5.7657 -3.1843,0 -5.7657,-2.5814 -5.7657,-5.7657 0,-3.1843 2.5814,-5.7657 5.7657,-5.7657 3.1843,0 5.7657,2.5814 5.7657,5.7657 z"
                 inkscape:connector-curvature="0" />
              <path
                 id="path4092"
                 style="color:#000000;fill:#333333"
                 d="m 266.98865,276.62987 c -0.12552,0.0127 -0.2507,0.0473 -0.37372,0.068 v 11.348 c 0.31297,0.0526 0.65735,0.10187 0.98527,0.10187 0.32792,0 0.63832,-0.0494 0.9513,-0.10187 v -11.348 c -0.31298,-0.0526 -0.62338,-0.068 -0.9513,-0.068 -0.19902,0 -0.41772,-0.0197 -0.61155,0 z"
                 inkscape:connector-curvature="0" />
            </g>
          </g>
        </g>
        <g
           id="g4373"
           transform="matrix(1.0583,0.62048,-0.62048,1.0583,150.91,186.53)">
          <g
             id="g4375"
             transform="translate(12.5,-63.5)">
            <g
               id="g4377"
               transform="translate(2.75,0)">
              <path
                 id="path4379"
                 style="color:#000000;fill:#b3b3b3"
                 d="m 308.69,346.28 c -3.4416,0 -6.2174,2.7758 -6.2174,6.2174 0,3.4416 2.7724,6.2514 6.2174,6.2514 3.445,0 6.2514,-2.8064 6.2514,-6.2514 0,-3.445 -2.8098,-6.2174 -6.2514,-6.2174 z"
                 inkscape:connector-curvature="0" />
              <path
                 id="path4381"
                 style="color:#000000;fill:#4d4d4d"
                 d="m 314.46,352.51 c 0,3.1843 -2.5814,5.7657 -5.7657,5.7657 -3.1843,0 -5.7657,-2.5814 -5.7657,-5.7657 0,-3.1843 2.5814,-5.7657 5.7657,-5.7657 3.1843,0 5.7657,2.5814 5.7657,5.7657 z"
                 inkscape:connector-curvature="0" />
              <path
                 id="path4383"
                 style="color:#000000;fill:#333333"
                 d="m 308.1,346.75 c -0.12552,0.0127 -0.2507,0.0473 -0.37372,0.068 v 11.348 c 0.31297,0.0526 0.65735,0.10187 0.98527,0.10187 0.32792,0 0.63832,-0.0494 0.9513,-0.10187 v -11.348 c -0.31298,-0.0526 -0.62338,-0.068 -0.9513,-0.068 -0.19902,0 -0.41772,-0.0197 -0.61155,0 z"
                 inkscape:connector-curvature="0" />
            </g>
          </g>
        </g>
      </g>
      <g
         id="g4399"
         transform="matrix(0,-1,1,0,-174.28,538.46)">
        <g
           id="g4401"
           transform="matrix(1.0583,0.62048,-0.62048,1.0583,150.91,-152.88)">
          <g
             id="g4403"
             transform="translate(12.5,-63.5)">
            <g
               id="g4405"
               transform="translate(2.75,0)">
              <path
                 id="path4407"
                 style="color:#000000;fill:#b3b3b3"
                 d="m 308.69,346.28 c -3.4416,0 -6.2174,2.7758 -6.2174,6.2174 0,3.4416 2.7724,6.2514 6.2174,6.2514 3.445,0 6.2514,-2.8064 6.2514,-6.2514 0,-3.445 -2.8098,-6.2174 -6.2514,-6.2174 z"
                 inkscape:connector-curvature="0" />
              <path
                 id="path4409"
                 style="color:#000000;fill:#4d4d4d"
                 d="m 314.46,352.51 c 0,3.1843 -2.5814,5.7657 -5.7657,5.7657 -3.1843,0 -5.7657,-2.5814 -5.7657,-5.7657 0,-3.1843 2.5814,-5.7657 5.7657,-5.7657 3.1843,0 5.7657,2.5814 5.7657,5.7657 z"
                 inkscape:connector-curvature="0" />
              <path
                 id="path4411"
                 style="color:#000000;fill:#333333"
                 d="m 308.1,346.75 c -0.12552,0.0127 -0.2507,0.0473 -0.37372,0.068 v 11.348 c 0.31297,0.0526 0.65735,0.10187 0.98527,0.10187 0.32792,0 0.63832,-0.0494 0.9513,-0.10187 v -11.348 c -0.31298,-0.0526 -0.62338,-0.068 -0.9513,-0.068 -0.19902,0 -0.41772,-0.0197 -0.61155,0 z"
                 inkscape:connector-curvature="0" />
            </g>
          </g>
        </g>
        <g
           id="g4413"
           transform="matrix(1.0583,0.62048,-0.62048,1.0583,150.91,186.53)">
          <g
             id="g4415"
             transform="translate(12.5,-63.5)">
            <g
               id="g4417"
               transform="translate(2.75,0)">
              <path
                 id="path4419"
                 style="color:#000000;fill:#b3b3b3"
                 d="m 308.69,346.28 c -3.4416,0 -6.2174,2.7758 -6.2174,6.2174 0,3.4416 2.7724,6.2514 6.2174,6.2514 3.445,0 6.2514,-2.8064 6.2514,-6.2514 0,-3.445 -2.8098,-6.2174 -6.2514,-6.2174 z"
                 inkscape:connector-curvature="0" />
              <path
                 id="path4421"
                 style="color:#000000;fill:#4d4d4d"
                 d="m 314.46,352.51 c 0,3.1843 -2.5814,5.7657 -5.7657,5.7657 -3.1843,0 -5.7657,-2.5814 -5.7657,-5.7657 0,-3.1843 2.5814,-5.7657 5.7657,-5.7657 3.1843,0 5.7657,2.5814 5.7657,5.7657 z"
                 inkscape:connector-curvature="0" />
              <path
                 id="path4423"
                 style="color:#000000;fill:#333333"
                 d="m 308.1,346.75 c -0.12552,0.0127 -0.2507,0.0473 -0.37372,0.068 v 11.348 c 0.31297,0.0526 0.65735,0.10187 0.98527,0.10187 0.32792,0 0.63832,-0.0494 0.9513,-0.10187 v -11.348 c -0.31298,-0.0526 -0.62338,-0.068 -0.9513,-0.068 -0.19902,0 -0.41772,-0.0197 -0.61155,0 z"
                 inkscape:connector-curvature="0" />
            </g>
          </g>
        </g>
      </g>
    </g>
  </g>
</svg>
