/* XPM */
static char * ovoplayer_xpm[] = {
"32 32 192 2",
"  	c None",
". 	c #A2A2A2",
"+ 	c #989898",
"@ 	c #939393",
"# 	c #A3A3A3",
"$ 	c #838383",
"% 	c #858585",
"& 	c #9E9E9E",
"* 	c #8A8A8A",
"= 	c #9C9C9C",
"- 	c #A0A0A0",
"; 	c #808080",
"> 	c #3E3E3E",
", 	c #262626",
"' 	c #212121",
") 	c #878787",
"! 	c #9B9B9B",
"~ 	c #8B8B8B",
"{ 	c #9A9A9A",
"] 	c #9D9D9D",
"^ 	c #575757",
"/ 	c #242424",
"( 	c #414141",
"_ 	c #303030",
": 	c #1C1C1C",
"< 	c #0A0A0A",
"[ 	c #5E5E5E",
"} 	c #848484",
"| 	c #434343",
"1 	c #3A3A3A",
"2 	c #363636",
"3 	c #282828",
"4 	c #1F1F1F",
"5 	c #111111",
"6 	c #0C0C0C",
"7 	c #515151",
"8 	c #494949",
"9 	c #404040",
"0 	c #292929",
"a 	c #2B2B2B",
"b 	c #2E2E2E",
"c 	c #2F2F2F",
"d 	c #2D2D2D",
"e 	c #161616",
"f 	c #0D0D0D",
"g 	c #606060",
"h 	c #999999",
"i 	c #A7A7A7",
"j 	c #6A6A6A",
"k 	c #313131",
"l 	c #2A2A2A",
"m 	c #353535",
"n 	c #333333",
"o 	c #191919",
"p 	c #070707",
"q 	c #7E7E7E",
"r 	c #898989",
"s 	c #8D8D8D",
"t 	c #1A1A1A",
"u 	c #3C3C3C",
"v 	c #272727",
"w 	c #323232",
"x 	c #373737",
"y 	c #3B3B3B",
"z 	c #121212",
"A 	c #101010",
"B 	c #959595",
"C 	c #7C7C7C",
"D 	c #A5A5A5",
"E 	c #4E4E4E",
"F 	c #2C2C2C",
"G 	c #383838",
"H 	c #3D3D3D",
"I 	c #424242",
"J 	c #0E0E0E",
"K 	c #4F4F4F",
"L 	c #949494",
"M 	c #9F9F9F",
"N 	c #777777",
"O 	c #1D1D1D",
"P 	c #474747",
"Q 	c #444444",
"R 	c #3F3F3F",
"S 	c #393939",
"T 	c #222222",
"U 	c #030303",
"V 	c #7D7D7D",
"W 	c #484848",
"X 	c #4C4C4C",
"Y 	c #4A4A4A",
"Z 	c #454545",
"` 	c #969696",
" .	c #7B7B7B",
"..	c #4B4A4A",
"+.	c #484646",
"@.	c #393636",
"#.	c #494848",
"$.	c #545454",
"%.	c #464646",
"&.	c #252525",
"*.	c #020202",
"=.	c #929292",
"-.	c #343434",
";.	c #676767",
">.	c #A5A4A4",
",.	c #4C4A4A",
"'.	c #221E1E",
").	c #555454",
"!.	c #525252",
"~.	c #616161",
"{.	c #0F0F0F",
"].	c #3B3838",
"^.	c #939292",
"/.	c #D2D2D2",
"(.	c #5B5858",
"_.	c #2B2727",
":.	c #252121",
"<.	c #595959",
"[.	c #535353",
"}.	c #171717",
"|.	c #595757",
"1.	c #767474",
"2.	c #474545",
"3.	c #030000",
"4.	c #656565",
"5.	c #5F5F5F",
"6.	c #585858",
"7.	c #000000",
"8.	c #979797",
"9.	c #1B1B1B",
"0.	c #515252",
"a.	c #140E0E",
"b.	c #2E2A2A",
"c.	c #383434",
"d.	c #140F0F",
"e.	c #040000",
"f.	c #6B6B6B",
"g.	c #8F8F8F",
"h.	c #828282",
"i.	c #5B5B5B",
"j.	c #0B0B0B",
"k.	c #202020",
"l.	c #4B4B4B",
"m.	c #555555",
"n.	c #2D2B2B",
"o.	c #120D0D",
"p.	c #171212",
"q.	c #110C0C",
"r.	c #070101",
"s.	c #3A3838",
"t.	c #717171",
"u.	c #646464",
"v.	c #5C5C5C",
"w.	c #818181",
"x.	c #4D4D4D",
"y.	c #1E1E1E",
"z.	c #1D1717",
"A.	c #050000",
"B.	c #242020",
"C.	c #797979",
"D.	c #696969",
"E.	c #737373",
"F.	c #6F6F6F",
"G.	c #757575",
"H.	c #060606",
"I.	c #181818",
"J.	c #686868",
"K.	c #5D5D5D",
"L.	c #666666",
"M.	c #6D6D6D",
"N.	c #888888",
"O.	c #909090",
"P.	c #B6B6B6",
"Q.	c #8C8C8C",
"R.	c #565656",
"S.	c #707070",
"T.	c #787878",
"U.	c #A8A8A8",
"V.	c #7A7A7A",
"W.	c #6E6E6E",
"X.	c #727272",
"Y.	c #6C6C6C",
"Z.	c #AAAAAA",
"`.	c #636363",
" +	c #767676",
".+	c #505050",
"++	c #B2B2B2",
"@+	c #B3B3B3",
"#+	c #626262",
"$+	c #AEAEAE",
"%+	c #919191",
"&+	c #7F7F7F",
"                                                                ",
"                                                                ",
"                              . + @ +                           ",
"                            # + $ % + & *                       ",
"                        = - ; > , ' > ) ! ~                     ",
"                      { ] ^ / ( _ / : < [ { }                   ",
"                      & | 1 2 : , 3 4 5 6 7 !                   ",
"                    # 8 9 0 , a b c c d e f g h                 ",
"                  i j k l 3 d k m m m n _ o p q r               ",
"                  s t u v d w x 1 y u 1 x n z A B C             ",
"                D w E ' F w G H 9 ( I 9 H G w J K L             ",
"              M N 0 O l k x H I P P 8 P Q R S T U * V           ",
"              D / I v b 2 H | W X E K E Y Z R y 5 ( `           ",
"            &  .4 t F n y ( W ..+.@.#.$.7 X %.9 &.*.=. .        ",
"            . > -., _ x R %.X ;.>.,.'.).^ !.X %.9 f ~.*         ",
"            . {./ a n y | Y ].^./.(._.:.[ <.[.X Z }.l .         ",
"          = ; f e b 2 > %.E '.|.1.2.:.3.4.5.6.!.Y / 7.# V       ",
"          8.j 6 9._ S ( 8 0.a.b.c.b.d.e.f.4.5.^ K n < g.h.      ",
"          { i.j.k.w y | l.m.n.o.p.q.r.s.t.f.u.v.$.y : w.)       ",
"          w.x.< y.-.H Z x.m.v.z.A.A.B.C.N t.D.~.6.S 0 E.F.      ",
"          + G.H.I.m H Z E ^ 5.J.K.L.q w.V G.M.4.v.c l = N.      ",
"          =.O.H.5 2 H %.E ^ g J.t.C.w.) h.C.t.J.~.S y.P.$       ",
"          Q.! -.6 b H Z x.R.5.J.S.T.; ) $  .E.j $.K.6.U.V.      ",
"            M q U A H Q x.m.K.L.W.G.C w.w.V.X.Y.u 1 Z.L         ",
"            $ { %.6 9.| Y [.i.`.j t.N  . . +X.y W.J.U.N         ",
"              @ + &.J : P .+6.5.L.Y.t.G.G.t.R T.H ++~           ",
"                + B 0 J z -.[.i.~.;.Y.M.X 7 F.Z @+@             ",
"                #+B + W 6 , l -.u R Q m.t.H M.$+L J.            ",
"                    ~ h ) | 4 d ( W ( n K.i ] ~                 ",
"                       .+ + h h.Y.X.%+U.! h q                   ",
"                          &+) 8.* ~ { r ;                       ",
"                                                                "};
