<?xml version="1.0" encoding="UTF-8" standalone="no"?>
<!-- Created with Inkscape (http://www.inkscape.org/) -->
<svg xmlns:rdf="http://www.w3.org/1999/02/22-rdf-syntax-ns#" xmlns="http://www.w3.org/2000/svg" height="297mm" width="210mm" version="1.1" xmlns:cc="http://creativecommons.org/ns#" xmlns:xlink="http://www.w3.org/1999/xlink" xmlns:dc="http://purl.org/dc/elements/1.1/">
<defs>
<filter id="filter3969" y="-.648" width="2.296" x="-.648" height="2.296">
<feGaussianBlur stdDeviation="6.49124"/>
</filter>
<filter id="filter4009">
<feGaussianBlur stdDeviation="2.925"/>
</filter>
<filter id="filter4063">
<feGaussianBlur stdDeviation="1.1423125"/>
</filter>
<radialGradient id="radialGradient3132" gradientUnits="userSpaceOnUse" cy="579.81" cx="341.45" gradientTransform="matrix(1.7626 -1.1287 1.705 2.6625 -1201.1 -868.46)" r="135.34">
<stop stop-color="#8c8c8c" offset="0"/>
<stop offset="1"/>
</radialGradient>
<radialGradient id="radialGradient3134" gradientUnits="userSpaceOnUse" cy="511.6" cx="309.75" gradientTransform="matrix(1.225 0 0 1.225 -39.388 -442.87)" r="36.535">
<stop stop-color="#787878" offset="0"/>
<stop stop-color="#060000" offset="1"/>
</radialGradient>
<linearGradient id="linearGradient3136" y2="740.02" gradientUnits="userSpaceOnUse" x2="559.36" y1="577.65" x1="424.89">
<stop stop-color="#fff" offset="0"/>
<stop stop-color="#fff" stop-opacity="0" offset=".19813"/>
<stop stop-color="#fff" stop-opacity="0" offset=".57631"/>
<stop stop-color="#fff" offset=".90618"/>
<stop stop-color="#fff" offset="1"/>
</linearGradient>
<linearGradient id="linearGradient3138" y2="589.84" gradientUnits="userSpaceOnUse" x2="464.66" gradientTransform="translate(33.941,-299.81)" y1="408.84" x1="192.28">
<stop offset="0"/>
<stop stop-color="#fff" stop-opacity="0" offset=".5"/>
<stop stop-color="#fff" stop-opacity="0" offset=".75"/>
<stop stop-color="#fff" offset="1"/>
</linearGradient>
<linearGradient id="linearGradient3140" y2="657.84" gradientUnits="userSpaceOnUse" x2="480.94" gradientTransform="translate(33.941,-299.81)" y1="380.84" x1="183.56">
<stop stop-color="#fff" stop-opacity=".78022" offset="0"/>
<stop stop-color="#fff" stop-opacity="0" offset=".5"/>
<stop stop-color="#fff" stop-opacity="0" offset=".75"/>
<stop stop-color="#444343" stop-opacity=".71429" offset="1"/>
</linearGradient>
</defs>
<g transform="matrix(1.679 0 0 1.8165 -222.63 163.14)">
<path style="color:#000000" stroke="#666" d="m349.41 40.124c-100.59 0-183.91 83.312-183.91 183.91 0 100.59 83.312 183.91 183.91 183.91 100.59 0 183.91-83.312 183.91-183.91 0-100.59-83.312-183.91-183.91-183.91z"/>
<path style="color:#000000" d="m349.41-56.191c-99.364 0-181.69 180.86-181.69 280.22 0 99.364 82.323 181.69 181.69 181.69 99.364 0 181.69-82.323 181.69-181.69 0-99.364-82.323-280.22-181.69-280.22z" stroke="#666" fill="#999"/>
<path style="color:#000000" d="m349.41-32.722c-86.344 0-158.22 170.41-158.22 256.75 0 86.344 71.875 158.22 158.22 158.22 86.344 0 158.22-71.875 158.22-158.22 0-86.344-71.875-256.75-158.22-256.75z"/>
<path style="color:#000000" fill="url(#radialGradient3132)" d="m349.41-9.3475c-73.298 0-134.84 160.08-134.84 233.37 0 73.298 61.546 134.84 134.84 134.84 73.298 0 134.84-61.546 134.84-134.84 0-73.298-61.546-233.37-134.84-233.37z"/>
<path style="color:#000000" fill="url(#radialGradient3134)" d="m391.19 198.81c0 24.379-19.763 44.141-44.141 44.141-24.379 0-44.141-19.763-44.141-44.141 0-24.379 18.186-72.519 42.564-72.519 24.379 0 45.718 48.141 45.718 72.519z"/>
<path filter="url(#filter3969)" style="color:#000000" fill="#fff" d="m352.26 160.39c0 6.6389-5.3819 12.021-12.021 12.021-6.6389 0-12.021-5.3819-12.021-12.021 0-6.6389 5.3819-12.021 12.021-12.021 6.6389 0 12.021 5.3819 12.021 12.021z"/>
<path style="color:#000000" d="m315.47 283.28c-78.861 0-144.53 161.7-144.53 240.56 0 78.861 65.67 144.53 144.53 144.53 78.86 0.01 144.53-65.67 144.53-144.53s-65.67-240.56-144.53-240.56zm0 6.5312c75.331 0 138 158.7 138 234.03 0 75.331-62.669 138-138 138s-138-62.669-138-138 62.669-234.03 138-234.03z" transform="matrix(1.0261,0,0,1.0261,25.708,-313.48)" filter="url(#filter4009)" stroke="#999" stroke-width=".92440" fill="url(#linearGradient3136)"/>
<path filter="url(#filter4063)" style="color:#000000" fill="url(#linearGradient3138)" d="m350.41-37.691c-89.064 0-163.19 172.66-163.19 261.72 0 89.064 74.124 163.19 163.19 163.19 89.064 0 163.19-74.124 163.19-163.19 0-89.064-74.124-261.72-163.19-261.72zm0 4.9688c86.344 0 158.22 170.41 158.22 256.75 0 86.344-71.875 158.22-158.22 158.22-86.344 0-158.22-71.875-158.22-158.22 0-86.344 71.875-256.75 158.22-256.75z"/>
<path style="color:#000000" fill="url(#linearGradient3140)" d="m349.19-57.191c-99.364 0-181.69 180.86-181.69 280.22 0 99.364 82.323 181.69 181.69 181.69 99.364 0 181.69-82.323 181.69-181.69 0-99.364-82.323-280.22-181.69-280.22zm0 4c97.183 0 177.72 179.04 177.72 276.22 0 97.183-80.536 177.69-177.72 177.69-97.183 0-177.69-80.505-177.69-177.69 0-97.183 80.505-276.22 177.69-276.22z"/>
<g transform="translate(34.982,-299.66)">
<g transform="matrix(1.0583 .62048 -.62048 1.0583 150.91 -152.88)">
<g transform="translate(12.5,-63.5)">
<g transform="translate(2.75)">
<path style="color:#000000" fill="#b3b3b3" d="m267.58 276.16c-3.4416 0-6.2174 2.7758-6.2174 6.2174s2.7724 6.2514 6.2174 6.2514 6.2514-2.8064 6.2514-6.2514-2.8098-6.2174-6.2514-6.2174z"/>
<path style="color:#000000" fill="#4d4d4d" d="m273.35 282.39c0 3.1843-2.5814 5.7657-5.7657 5.7657s-5.7657-2.5814-5.7657-5.7657 2.5814-5.7657 5.7657-5.7657 5.7657 2.5814 5.7657 5.7657z"/>
<path style="color:#000000" fill="#333" d="m266.99 276.63c-0.12552 0.0127-0.2507 0.0473-0.37372 0.068v11.348c0.31297 0.0526 0.65735 0.10187 0.98527 0.10187s0.63832-0.0494 0.9513-0.10187v-11.348c-0.31298-0.0526-0.62338-0.068-0.9513-0.068-0.19902 0-0.41772-0.0197-0.61155 0z"/>
</g>
</g>
</g>
<g transform="matrix(1.0583 .62048 -.62048 1.0583 150.91 186.53)">
<g transform="translate(12.5,-63.5)">
<g transform="translate(2.75)">
<path style="color:#000000" fill="#b3b3b3" d="m308.69 346.28c-3.4416 0-6.2174 2.7758-6.2174 6.2174s2.7724 6.2514 6.2174 6.2514 6.2514-2.8064 6.2514-6.2514-2.8098-6.2174-6.2514-6.2174z"/>
<path style="color:#000000" fill="#4d4d4d" d="m314.46 352.51c0 3.1843-2.5814 5.7657-5.7657 5.7657s-5.7657-2.5814-5.7657-5.7657 2.5814-5.7657 5.7657-5.7657 5.7657 2.5814 5.7657 5.7657z"/>
<path style="color:#000000" fill="#333" d="m308.1 346.75c-0.12552 0.0127-0.2507 0.0473-0.37372 0.068v11.348c0.31297 0.0526 0.65735 0.10187 0.98527 0.10187s0.63832-0.0494 0.9513-0.10187v-11.348c-0.31298-0.0526-0.62338-0.068-0.9513-0.068-0.19902 0-0.41772-0.0197-0.61155 0z"/>
</g>
</g>
</g>
</g>
<g transform="matrix(0,-1,1,0,-174.28,538.46)">
<g transform="matrix(1.0583 .62048 -.62048 1.0583 150.91 -152.88)">
<g transform="translate(12.5,-63.5)">
<g transform="translate(2.75)">
<path style="color:#000000" fill="#b3b3b3" d="m308.69 346.28c-3.4416 0-6.2174 2.7758-6.2174 6.2174s2.7724 6.2514 6.2174 6.2514 6.2514-2.8064 6.2514-6.2514-2.8098-6.2174-6.2514-6.2174z"/>
<path style="color:#000000" fill="#4d4d4d" d="m314.46 352.51c0 3.1843-2.5814 5.7657-5.7657 5.7657s-5.7657-2.5814-5.7657-5.7657 2.5814-5.7657 5.7657-5.7657 5.7657 2.5814 5.7657 5.7657z"/>
<path style="color:#000000" fill="#333" d="m308.1 346.75c-0.12552 0.0127-0.2507 0.0473-0.37372 0.068v11.348c0.31297 0.0526 0.65735 0.10187 0.98527 0.10187s0.63832-0.0494 0.9513-0.10187v-11.348c-0.31298-0.0526-0.62338-0.068-0.9513-0.068-0.19902 0-0.41772-0.0197-0.61155 0z"/>
</g>
</g>
</g>
<g transform="matrix(1.0583 .62048 -.62048 1.0583 150.91 186.53)">
<g transform="translate(12.5,-63.5)">
<g transform="translate(2.75)">
<path style="color:#000000" fill="#b3b3b3" d="m308.69 346.28c-3.4416 0-6.2174 2.7758-6.2174 6.2174s2.7724 6.2514 6.2174 6.2514 6.2514-2.8064 6.2514-6.2514-2.8098-6.2174-6.2514-6.2174z"/>
<path style="color:#000000" fill="#4d4d4d" d="m314.46 352.51c0 3.1843-2.5814 5.7657-5.7657 5.7657s-5.7657-2.5814-5.7657-5.7657 2.5814-5.7657 5.7657-5.7657 5.7657 2.5814 5.7657 5.7657z"/>
<path style="color:#000000" fill="#333" d="m308.1 346.75c-0.12552 0.0127-0.2507 0.0473-0.37372 0.068v11.348c0.31297 0.0526 0.65735 0.10187 0.98527 0.10187s0.63832-0.0494 0.9513-0.10187v-11.348c-0.31298-0.0526-0.62338-0.068-0.9513-0.068-0.19902 0-0.41772-0.0197-0.61155 0z"/>
</g>
</g>
</g>
</g>
</g>
</svg>
